<svg width="28" height="29" viewBox="0 0 28 29" fill="none" xmlns="http://www.w3.org/2000/svg">
<path d="M27.5841 6.25988C26.6099 6.69155 25.5634 6.98322 24.4633 7.11505C25.5984 6.43581 26.4477 5.36676 26.8526 4.10738C25.7861 4.74087 24.6188 5.18678 23.4016 5.42572C22.583 4.55173 21.4988 3.97243 20.3173 3.77777C19.1358 3.58311 17.923 3.78397 16.8674 4.34918C15.8117 4.91438 14.9722 5.8123 14.4791 6.90354C13.986 7.99477 13.867 9.21826 14.1406 10.384C11.9796 10.2755 9.86548 9.71386 7.93558 8.73544C6.00567 7.75702 4.30306 6.38374 2.93825 4.70472C2.47158 5.50972 2.20325 6.44305 2.20325 7.43705C2.20273 8.33188 2.42309 9.213 2.84478 10.0022C3.26646 10.7915 3.87644 11.4644 4.62058 11.9614C3.75757 11.9339 2.9136 11.7007 2.15892 11.2812V11.3512C2.15883 12.6062 2.59295 13.8227 3.38763 14.794C4.18231 15.7654 5.28858 16.432 6.51875 16.6806C5.71816 16.8972 4.87881 16.9291 4.06408 16.7739C4.41116 17.8538 5.08724 18.7981 5.99768 19.4746C6.90811 20.1512 8.00732 20.5261 9.14142 20.5469C7.21622 22.0582 4.83862 22.878 2.39108 22.8744C1.95753 22.8745 1.52434 22.8492 1.09375 22.7986C3.57814 24.3959 6.47015 25.2437 9.42375 25.2404C19.4221 25.2404 24.8879 16.9594 24.8879 9.77738C24.8879 9.54405 24.8821 9.30838 24.8716 9.07505C25.9348 8.30619 26.8525 7.35409 27.5818 6.26338L27.5841 6.25988Z" fill="#17A1FA"/>
</svg>
