<svg width="28" height="29" viewBox="0 0 28 29" fill="none" xmlns="http://www.w3.org/2000/svg">
<path d="M24.4378 10.1891C24.426 9.30551 24.2606 8.43069 23.9489 7.60378C23.6787 6.90629 23.2659 6.27285 22.737 5.74392C22.208 5.21499 21.5746 4.80221 20.8771 4.53195C20.0608 4.22553 19.1985 4.05985 18.3268 4.04195C17.2044 3.99178 16.8486 3.97778 13.9996 3.97778C11.1506 3.97778 10.7854 3.97778 9.67126 4.04195C8.79995 4.05998 7.938 4.22566 7.12209 4.53195C6.42449 4.80202 5.79095 5.21474 5.262 5.74369C4.73305 6.27264 4.32033 6.90618 4.05026 7.60378C3.74323 8.41944 3.5779 9.28158 3.56143 10.1529C3.51126 11.2764 3.49609 11.6323 3.49609 14.4813C3.49609 17.3303 3.49609 17.6943 3.56143 18.8096C3.57893 19.6823 3.74343 20.5433 4.05026 21.3611C4.32078 22.0585 4.73381 22.6918 5.26294 23.2205C5.79207 23.7492 6.42567 24.1618 7.12326 24.4318C7.93693 24.7505 8.79903 24.9281 9.67243 24.9568C10.7959 25.0069 11.1518 25.0221 14.0008 25.0221C16.8498 25.0221 17.2149 25.0221 18.3291 24.9568C19.2008 24.9396 20.0632 24.7743 20.8794 24.4679C21.5767 24.1974 22.21 23.7845 22.7389 23.2556C23.2678 22.7267 23.6807 22.0934 23.9513 21.3961C24.2581 20.5794 24.4226 19.7184 24.4401 18.8446C24.4903 17.7223 24.5054 17.3664 24.5054 14.5163C24.5031 11.6673 24.5031 11.3056 24.4378 10.1891ZM13.9926 19.8689C11.0129 19.8689 8.59909 17.4551 8.59909 14.4754C8.59909 11.4958 11.0129 9.08195 13.9926 9.08195C15.423 9.08195 16.7949 9.65019 17.8064 10.6617C18.8179 11.6731 19.3861 13.045 19.3861 14.4754C19.3861 15.9059 18.8179 17.2778 17.8064 18.2892C16.7949 19.3007 15.423 19.8689 13.9926 19.8689ZM19.6008 10.1401C19.4356 10.1403 19.2719 10.1078 19.1193 10.0447C18.9666 9.98155 18.8279 9.88891 18.7111 9.7721C18.5943 9.65528 18.5017 9.51658 18.4385 9.36392C18.3754 9.21126 18.3429 9.04765 18.3431 8.88245C18.3431 8.71737 18.3756 8.5539 18.4388 8.40139C18.502 8.24887 18.5946 8.11029 18.7113 7.99356C18.828 7.87683 18.9666 7.78423 19.1191 7.72106C19.2716 7.65788 19.4351 7.62537 19.6002 7.62537C19.7653 7.62537 19.9287 7.65788 20.0812 7.72106C20.2338 7.78423 20.3723 7.87683 20.4891 7.99356C20.6058 8.11029 20.6984 8.24887 20.7616 8.40139C20.8247 8.5539 20.8573 8.71737 20.8573 8.88245C20.8573 9.57778 20.2949 10.1401 19.6008 10.1401Z" fill="url(#paint0_linear_493_2190)"/>
<path d="M13.9937 17.979C15.9287 17.979 17.4972 16.4105 17.4972 14.4755C17.4972 12.5406 15.9287 10.972 13.9937 10.972C12.0588 10.972 10.4902 12.5406 10.4902 14.4755C10.4902 16.4105 12.0588 17.979 13.9937 17.979Z" fill="url(#paint1_linear_493_2190)"/>
<defs>
<linearGradient id="paint0_linear_493_2190" x1="14.0008" y1="3.97778" x2="14.0008" y2="25.0221" gradientUnits="userSpaceOnUse">
<stop stop-color="#C02EFF"/>
<stop offset="1" stop-color="#FF2E92"/>
</linearGradient>
<linearGradient id="paint1_linear_493_2190" x1="13.9937" y1="10.972" x2="13.9937" y2="17.979" gradientUnits="userSpaceOnUse">
<stop stop-color="#C02EFF"/>
<stop offset="1" stop-color="#FF2E92"/>
</linearGradient>
</defs>
</svg>
