<svg width="28" height="29" viewBox="0 0 28 29" fill="none" xmlns="http://www.w3.org/2000/svg">
<path d="M2.33594 14.5023C2.33659 17.2805 3.32815 19.9674 5.13239 22.08C6.93663 24.1926 9.43524 25.5924 12.1791 26.0278V17.874H9.21927V14.5023H12.1826V11.9357C12.1172 11.335 12.1848 10.7272 12.3807 10.1555C12.5766 9.5839 12.896 9.06241 13.3162 8.6281C13.7363 8.1938 14.247 7.85733 14.8118 7.64261C15.3767 7.42788 15.9819 7.34016 16.5844 7.38568C17.4594 7.39968 18.3344 7.47785 19.1978 7.61901V10.4878H17.7231C17.4725 10.455 17.2177 10.4789 16.9775 10.5578C16.7374 10.6367 16.518 10.7686 16.3357 10.9436C16.1533 11.1187 16.0127 11.3325 15.9241 11.5692C15.8355 11.806 15.8012 12.0596 15.8238 12.3113V14.5023H19.0566L18.5398 17.8752H15.8238V26.0278C18.026 25.6798 20.0824 24.708 21.7495 23.2276C23.4165 21.7471 24.6245 19.82 25.2303 17.6743C25.8361 15.5286 25.8145 13.2543 25.1678 11.1206C24.5212 8.98684 23.2767 7.08308 21.5817 5.63468C19.8867 4.18628 17.8122 3.25389 15.6037 2.94792C13.3952 2.64194 11.1453 2.97519 9.1204 3.9082C7.09545 4.84121 5.38026 6.33492 4.17788 8.21247C2.9755 10.09 2.33629 12.2728 2.33594 14.5023Z" fill="#17A1FA"/>
</svg>
