<svg width="240" height="400" viewBox="0 0 240 400" fill="none" xmlns="http://www.w3.org/2000/svg">
<rect width="240" height="400" fill="#FFF4F3"/>
<path opacity="0.6" d="M108.666 204.808H101.994L100.89 208H97.3623L103.386 191.224H107.298L113.322 208H109.77L108.666 204.808ZM107.754 202.12L105.33 195.112L102.906 202.12H107.754ZM114.71 201.304C114.71 199.96 114.974 198.768 115.502 197.728C116.046 196.688 116.782 195.888 117.71 195.328C118.638 194.768 119.67 194.488 120.806 194.488C121.67 194.488 122.494 194.68 123.278 195.064C124.062 195.432 124.686 195.928 125.15 196.552V190.24H128.558V208H125.15V206.032C124.734 206.688 124.15 207.216 123.398 207.616C122.646 208.016 121.774 208.216 120.782 208.216C119.662 208.216 118.638 207.928 117.71 207.352C116.782 206.776 116.046 205.968 115.502 204.928C114.974 203.872 114.71 202.664 114.71 201.304ZM125.174 201.352C125.174 200.536 125.014 199.84 124.694 199.264C124.374 198.672 123.942 198.224 123.398 197.92C122.854 197.6 122.27 197.44 121.646 197.44C121.022 197.44 120.446 197.592 119.918 197.896C119.39 198.2 118.958 198.648 118.622 199.24C118.302 199.816 118.142 200.504 118.142 201.304C118.142 202.104 118.302 202.808 118.622 203.416C118.958 204.008 119.39 204.464 119.918 204.784C120.462 205.104 121.038 205.264 121.646 205.264C122.27 205.264 122.854 205.112 123.398 204.808C123.942 204.488 124.374 204.04 124.694 203.464C125.014 202.872 125.174 202.168 125.174 201.352ZM136.928 208.216C135.84 208.216 134.864 208.024 134 207.64C133.136 207.24 132.448 206.704 131.936 206.032C131.44 205.36 131.168 204.616 131.12 203.8H134.504C134.568 204.312 134.816 204.736 135.248 205.072C135.696 205.408 136.248 205.576 136.904 205.576C137.544 205.576 138.04 205.448 138.392 205.192C138.76 204.936 138.944 204.608 138.944 204.208C138.944 203.776 138.72 203.456 138.272 203.248C137.84 203.024 137.144 202.784 136.184 202.528C135.192 202.288 134.376 202.04 133.736 201.784C133.112 201.528 132.568 201.136 132.104 200.608C131.656 200.08 131.432 199.368 131.432 198.472C131.432 197.736 131.64 197.064 132.056 196.456C132.488 195.848 133.096 195.368 133.88 195.016C134.68 194.664 135.616 194.488 136.688 194.488C138.272 194.488 139.536 194.888 140.48 195.688C141.424 196.472 141.944 197.536 142.04 198.88H138.824C138.776 198.352 138.552 197.936 138.152 197.632C137.768 197.312 137.248 197.152 136.592 197.152C135.984 197.152 135.512 197.264 135.176 197.488C134.856 197.712 134.696 198.024 134.696 198.424C134.696 198.872 134.92 199.216 135.368 199.456C135.816 199.68 136.512 199.912 137.456 200.152C138.416 200.392 139.208 200.64 139.832 200.896C140.456 201.152 140.992 201.552 141.44 202.096C141.904 202.624 142.144 203.328 142.16 204.208C142.16 204.976 141.944 205.664 141.512 206.272C141.096 206.88 140.488 207.36 139.688 207.712C138.904 208.048 137.984 208.216 136.928 208.216Z" fill="#F06C5C"/>
</svg>
