<svg width="52" height="52" viewBox="0 0 52 52" fill="none" xmlns="http://www.w3.org/2000/svg">
<path opacity="0.1" d="M26.0007 47.6667C37.9668 47.6667 47.6673 37.9662 47.6673 26C47.6673 14.0339 37.9668 4.33337 26.0007 4.33337C14.0345 4.33337 4.33398 14.0339 4.33398 26C4.33398 37.9662 14.0345 47.6667 26.0007 47.6667Z" fill="#A1A6AD"/>
<path d="M31.8015 16.1703C32.5267 15.4451 32.5267 14.2692 31.8015 13.5439C31.0762 12.8187 29.9003 12.8187 29.1751 13.5439L18.0322 24.6868C17.3292 25.3899 17.3046 26.522 17.9764 27.2549L28.1907 38.3978C28.8838 39.1538 30.0585 39.2049 30.8146 38.5119C31.5707 37.8188 31.6218 36.644 30.9287 35.8879L21.916 26.0559L31.8015 16.1703Z" fill="#2CB9C1"/>
</svg>
