<svg width="52" height="52" viewBox="0 0 52 52" fill="none" xmlns="http://www.w3.org/2000/svg">
<path opacity="0.1" d="M25.9993 47.6667C14.0332 47.6667 4.33268 37.9662 4.33268 26C4.33268 14.0339 14.0332 4.33337 25.9993 4.33337C37.9655 4.33337 47.666 14.0339 47.666 26C47.666 37.9662 37.9655 47.6667 25.9993 47.6667Z" fill="#A1A6AD"/>
<path d="M20.1985 16.1703C19.4733 15.4451 19.4733 14.2692 20.1985 13.5439C20.9238 12.8187 22.0997 12.8187 22.8249 13.5439L33.9678 24.6868C34.6708 25.3899 34.6954 26.522 34.0236 27.2549L23.8093 38.3978C23.1162 39.1538 21.9415 39.2049 21.1854 38.5119C20.4293 37.8188 20.3782 36.644 21.0713 35.8879L30.084 26.0559L20.1985 16.1703Z" fill="#2CB9C1"/>
</svg>
