<svg width="34" height="34" viewBox="0 0 34 34" fill="none" xmlns="http://www.w3.org/2000/svg">
<g clip-path="url(#clip0_2866_6133)">
<path d="M4.25 32.9375C4.24987 33.122 4.29778 33.3034 4.38903 33.4637C4.48027 33.6241 4.61171 33.7579 4.7704 33.8521C4.92908 33.9462 5.10954 33.9974 5.29402 34.0006C5.4785 34.0038 5.66064 33.9589 5.8225 33.8704L17 27.7716L28.1775 33.8704C28.3394 33.9589 28.5215 34.0038 28.706 34.0006C28.8905 33.9974 29.0709 33.9462 29.2296 33.8521C29.3883 33.7579 29.5197 33.6241 29.611 33.4637C29.7022 33.3034 29.7501 33.122 29.75 32.9375V4.25C29.75 3.12283 29.3022 2.04183 28.5052 1.2448C27.7082 0.447767 26.6272 0 25.5 0L8.5 0C7.37283 0 6.29183 0.447767 5.4948 1.2448C4.69777 2.04183 4.25 3.12283 4.25 4.25V32.9375ZM17 9.37125C19.9474 6.34313 27.3148 11.645 17 18.4599C6.68525 11.645 14.0526 6.34525 17 9.3755V9.37125Z" fill="#BCBCBC"/>
</g>
<defs>
<clipPath id="clip0_2866_6133">
<rect width="34" height="34" fill="white"/>
</clipPath>
</defs>
</svg>
