<svg width="28" height="28" viewBox="0 0 28 28" fill="none" xmlns="http://www.w3.org/2000/svg">
<path d="M22.8074 12.8297C22.2766 11.6349 21.5049 10.5625 20.5406 9.67968L19.7449 8.9496C19.7179 8.92549 19.6854 8.90838 19.6502 8.89977C19.615 8.89117 19.5783 8.89132 19.5432 8.90023C19.5081 8.90914 19.4757 8.92653 19.4489 8.95087C19.4221 8.97521 19.4017 9.00576 19.3895 9.03983L19.034 10.0598C18.8125 10.6996 18.4051 11.3531 17.8281 11.9957C17.7898 12.0367 17.7461 12.0476 17.716 12.0504C17.6859 12.0531 17.6395 12.0476 17.5984 12.0094C17.5602 11.9766 17.541 11.9273 17.5437 11.8781C17.6449 10.232 17.1527 8.37538 16.0754 6.35468C15.184 4.67577 13.9453 3.36601 12.3977 2.45273L11.2684 1.78828C11.1207 1.70078 10.932 1.81562 10.9402 1.98789L11.0004 3.30039C11.0414 4.19726 10.9375 4.99023 10.6914 5.64921C10.3906 6.45585 9.95859 7.20507 9.40625 7.87773C9.02186 8.3452 8.58619 8.76803 8.10742 9.13827C6.95435 10.0247 6.01676 11.1604 5.36484 12.4605C4.71454 13.772 4.37579 15.2158 4.375 16.6797C4.375 17.9703 4.6293 19.2199 5.13242 20.3984C5.61823 21.5331 6.3193 22.5629 7.19688 23.4308C8.08281 24.3058 9.11094 24.9949 10.2566 25.4734C11.4434 25.9711 12.7012 26.2226 14 26.2226C15.2988 26.2226 16.5566 25.9711 17.7434 25.4761C18.8862 25.0004 19.9255 24.3067 20.8031 23.4336C21.6891 22.5586 22.3836 21.5359 22.8676 20.4011C23.3699 19.2259 23.6277 17.9606 23.625 16.6824C23.625 15.348 23.3516 14.0519 22.8074 12.8297Z" fill="url(#paint0_linear_197_1039)"/>
<path d="M17.9742 16.3612C17.9698 16.0253 17.9068 15.6928 17.7881 15.3784C17.6852 15.1133 17.528 14.8725 17.3266 14.6714C17.1252 14.4703 16.884 14.3134 16.6184 14.2107C16.3076 14.0942 15.9792 14.0312 15.6473 14.0244C15.2199 14.0053 15.0844 14 13.9996 14C12.9147 14 12.7757 14 12.3514 14.0244C12.0196 14.0312 11.6914 14.0942 11.3807 14.2107C11.1151 14.3133 10.8738 14.4702 10.6724 14.6713C10.471 14.8724 10.3139 15.1132 10.211 15.3784C10.0941 15.6885 10.0312 16.0162 10.0249 16.3475C10.0058 16.7746 10 16.9099 10 17.9929C10 19.076 10 19.2143 10.0249 19.6383C10.0315 19.9701 10.0942 20.2974 10.211 20.6083C10.314 20.8734 10.4713 21.1141 10.6728 21.3151C10.8743 21.5161 11.1155 21.6729 11.3812 21.7756C11.691 21.8968 12.0193 21.9642 12.3518 21.9752C12.7797 21.9942 12.9151 22 14 22C15.0849 22 15.2239 22 15.6482 21.9752C15.9801 21.9686 16.3085 21.9058 16.6193 21.7893C16.8848 21.6865 17.1259 21.5295 17.3273 21.3285C17.5287 21.1274 17.686 20.8867 17.789 20.6216C17.9058 20.3111 17.9685 19.9838 17.9751 19.6516C17.9942 19.225 18 19.0897 18 18.0062C17.9991 16.9232 17.9991 16.7857 17.9742 16.3612ZM13.9969 20.041C12.8623 20.041 11.9431 19.1234 11.9431 17.9907C11.9431 16.858 12.8623 15.9403 13.9969 15.9403C14.5416 15.9403 15.064 16.1564 15.4491 16.5409C15.8343 16.9254 16.0506 17.4469 16.0506 17.9907C16.0506 18.5345 15.8343 19.056 15.4491 19.4405C15.064 19.825 14.5416 20.041 13.9969 20.041ZM16.1324 16.3426C16.0695 16.3427 16.0072 16.3303 15.949 16.3063C15.8909 16.2823 15.8381 16.2471 15.7936 16.2027C15.7491 16.1583 15.7139 16.1056 15.6898 16.0475C15.6658 15.9895 15.6534 15.9273 15.6535 15.8645C15.6535 15.8018 15.6659 15.7396 15.6899 15.6816C15.714 15.6237 15.7492 15.571 15.7937 15.5266C15.8381 15.4822 15.8909 15.447 15.949 15.423C16.0071 15.399 16.0693 15.3866 16.1322 15.3866C16.195 15.3866 16.2573 15.399 16.3153 15.423C16.3734 15.447 16.4262 15.4822 16.4706 15.5266C16.5151 15.571 16.5503 15.6237 16.5744 15.6816C16.5985 15.7396 16.6108 15.8018 16.6108 15.8645C16.6108 16.1288 16.3967 16.3426 16.1324 16.3426Z" fill="white"/>
<path d="M14.0004 19.6C14.884 19.6 15.6004 18.8837 15.6004 18C15.6004 17.1163 14.884 16.4 14.0004 16.4C13.1167 16.4 12.4004 17.1163 12.4004 18C12.4004 18.8837 13.1167 19.6 14.0004 19.6Z" fill="white"/>
<defs>
<linearGradient id="paint0_linear_197_1039" x1="14" y1="1.75823" x2="14" y2="26.2226" gradientUnits="userSpaceOnUse">
<stop stop-color="#C02EFF"/>
<stop offset="1" stop-color="#FF2E92"/>
</linearGradient>
</defs>
</svg>
