<svg width="150" height="56" viewBox="0 0 150 56" fill="none" xmlns="http://www.w3.org/2000/svg">
<rect x="0.9" y="0.9" width="148.2" height="54.2" rx="9.1" fill="white"/>
<path d="M26.8099 32.002H30.9499V34H24.2899V21.436H26.8099V32.002ZM38.3836 34.126C37.2076 34.126 36.1276 33.85 35.1436 33.298C34.1596 32.746 33.3796 31.984 32.8036 31.012C32.2276 30.028 31.9396 28.918 31.9396 27.682C31.9396 26.458 32.2276 25.36 32.8036 24.388C33.3796 23.404 34.1596 22.636 35.1436 22.084C36.1276 21.532 37.2076 21.256 38.3836 21.256C39.5716 21.256 40.6516 21.532 41.6236 22.084C42.6076 22.636 43.3816 23.404 43.9456 24.388C44.5216 25.36 44.8096 26.458 44.8096 27.682C44.8096 28.918 44.5216 30.028 43.9456 31.012C43.3816 31.984 42.6076 32.746 41.6236 33.298C40.6396 33.85 39.5596 34.126 38.3836 34.126ZM38.3836 31.876C39.1396 31.876 39.8056 31.708 40.3816 31.372C40.9576 31.024 41.4076 30.532 41.7316 29.896C42.0556 29.26 42.2176 28.522 42.2176 27.682C42.2176 26.842 42.0556 26.11 41.7316 25.486C41.4076 24.85 40.9576 24.364 40.3816 24.028C39.8056 23.692 39.1396 23.524 38.3836 23.524C37.6276 23.524 36.9556 23.692 36.3676 24.028C35.7916 24.364 35.3416 24.85 35.0176 25.486C34.6936 26.11 34.5316 26.842 34.5316 27.682C34.5316 28.522 34.6936 29.26 35.0176 29.896C35.3416 30.532 35.7916 31.024 36.3676 31.372C36.9556 31.708 37.6276 31.876 38.3836 31.876ZM54.3884 31.606H49.3844L48.5564 34H45.9104L50.4284 21.418H53.3624L57.8804 34H55.2164L54.3884 31.606ZM53.7044 29.59L51.8864 24.334L50.0684 29.59H53.7044ZM63.9611 21.436C65.2811 21.436 66.4391 21.694 67.4351 22.21C68.4431 22.726 69.2171 23.464 69.7571 24.424C70.3091 25.372 70.5851 26.476 70.5851 27.736C70.5851 28.996 70.3091 30.1 69.7571 31.048C69.2171 31.984 68.4431 32.71 67.4351 33.226C66.4391 33.742 65.2811 34 63.9611 34H59.5691V21.436H63.9611ZM63.8711 31.858C65.1911 31.858 66.2111 31.498 66.9311 30.778C67.6511 30.058 68.0111 29.044 68.0111 27.736C68.0111 26.428 67.6511 25.408 66.9311 24.676C66.2111 23.932 65.1911 23.56 63.8711 23.56H62.0891V31.858H63.8711ZM90.4586 21.436V34H87.9386V25.828L84.5726 34H82.6646L79.2806 25.828V34H76.7606V21.436H79.6226L83.6186 30.778L87.6146 21.436H90.4586ZM98.782 34.126C97.606 34.126 96.526 33.85 95.542 33.298C94.558 32.746 93.778 31.984 93.202 31.012C92.626 30.028 92.338 28.918 92.338 27.682C92.338 26.458 92.626 25.36 93.202 24.388C93.778 23.404 94.558 22.636 95.542 22.084C96.526 21.532 97.606 21.256 98.782 21.256C99.97 21.256 101.05 21.532 102.022 22.084C103.006 22.636 103.78 23.404 104.344 24.388C104.92 25.36 105.208 26.458 105.208 27.682C105.208 28.918 104.92 30.028 104.344 31.012C103.78 31.984 103.006 32.746 102.022 33.298C101.038 33.85 99.958 34.126 98.782 34.126ZM98.782 31.876C99.538 31.876 100.204 31.708 100.78 31.372C101.356 31.024 101.806 30.532 102.13 29.896C102.454 29.26 102.616 28.522 102.616 27.682C102.616 26.842 102.454 26.11 102.13 25.486C101.806 24.85 101.356 24.364 100.78 24.028C100.204 23.692 99.538 23.524 98.782 23.524C98.026 23.524 97.354 23.692 96.766 24.028C96.19 24.364 95.74 24.85 95.416 25.486C95.092 26.11 94.93 26.842 94.93 27.682C94.93 28.522 95.092 29.26 95.416 29.896C95.74 30.532 96.19 31.024 96.766 31.372C97.354 31.708 98.026 31.876 98.782 31.876ZM113.563 34L110.791 29.104H109.603V34H107.083V21.436H111.799C112.771 21.436 113.599 21.61 114.283 21.958C114.967 22.294 115.477 22.756 115.813 23.344C116.161 23.92 116.335 24.568 116.335 25.288C116.335 26.116 116.095 26.866 115.615 27.538C115.135 28.198 114.421 28.654 113.473 28.906L116.479 34H113.563ZM109.603 27.214H111.709C112.393 27.214 112.903 27.052 113.239 26.728C113.575 26.392 113.743 25.93 113.743 25.342C113.743 24.766 113.575 24.322 113.239 24.01C112.903 23.686 112.393 23.524 111.709 23.524H109.603V27.214ZM121.134 23.47V26.62H125.364V28.618H121.134V31.948H125.904V34H118.614V21.418H125.904V23.47H121.134Z" fill="#2CB9C1"/>
<rect x="0.9" y="0.9" width="148.2" height="54.2" rx="9.1" stroke="#D3E9EA" stroke-width="1.8"/>
</svg>
