<svg width="224" height="24" viewBox="0 0 224 24" fill="none" xmlns="http://www.w3.org/2000/svg">
<path d="M69.7071 6.70711C70.0976 6.31658 70.0976 5.68342 69.7071 5.29289C69.3166 4.90237 68.6834 4.90237 68.2929 5.29289L62.2929 11.2929C61.9143 11.6715 61.9011 12.2811 62.2628 12.6757L67.7628 18.6757C68.136 19.0828 68.7686 19.1103 69.1757 18.7372C69.5828 18.364 69.6103 17.7314 69.2372 17.3243L64.3841 12.0301L69.7071 6.70711Z" fill="white"/>
<path opacity="0.3" d="M76.7071 6.70711C77.0976 6.31658 77.0976 5.68342 76.7071 5.29289C76.3166 4.90237 75.6834 4.90237 75.2929 5.29289L69.2929 11.2929C68.9143 11.6715 68.9011 12.2811 69.2628 12.6757L74.7628 18.6757C75.136 19.0828 75.7686 19.1103 76.1757 18.7372C76.5828 18.364 76.6103 17.7314 76.2372 17.3243L71.3841 12.0301L76.7071 6.70711Z" fill="white"/>
<path d="M107 18.8906C106.067 18.8906 105.176 18.7089 104.329 18.3456C103.481 17.9822 102.747 17.491 102.128 16.8719C101.509 16.2528 101.018 15.5194 100.654 14.6715C100.291 13.8236 100.109 12.9331 100.109 12C100.109 11.067 100.291 10.1764 100.654 9.32855C101.018 8.48065 101.509 7.74722 102.128 7.12812C102.747 6.50902 103.481 6.01781 104.329 5.65444C105.176 5.29106 106.067 5.10938 107 5.10938C107.933 5.10938 108.824 5.29106 109.671 5.65444C110.519 6.01781 111.253 6.50902 111.872 7.12812C112.491 7.74722 112.982 8.48065 113.346 9.32855C113.709 10.1764 113.891 11.0669 113.891 12C113.891 12.933 113.709 13.8236 113.346 14.6715C112.982 15.5194 112.491 16.2528 111.872 16.8719C111.253 17.491 110.519 17.9822 109.671 18.3456C108.824 18.7089 107.933 18.8906 107 18.8906ZM107 17.7656C107.781 17.7656 108.526 17.6136 109.235 17.3096C109.945 17.0055 110.558 16.5945 111.077 16.0765C111.595 15.5584 112.005 14.9448 112.31 14.2353C112.614 13.5259 112.766 12.7807 112.766 12C112.766 11.2193 112.614 10.4741 112.31 9.7647C112.005 9.05524 111.595 8.44155 111.077 7.92349C110.558 7.4055 109.945 6.99452 109.235 6.69042C108.526 6.38639 107.781 6.23438 107 6.23438C106.219 6.23438 105.474 6.38639 104.765 6.69042C104.055 6.99452 103.442 7.4055 102.923 7.92349C102.406 8.44155 101.995 9.05524 101.69 9.7647C101.386 10.4741 101.234 11.2193 101.234 12C101.234 12.7807 101.386 13.5259 101.69 14.2353C101.995 14.9448 102.406 15.5584 102.923 16.0765C103.442 16.5945 104.055 17.0055 104.765 17.3096C105.474 17.6136 106.219 17.7656 107 17.7656Z" fill="#2CB9C1"/>
<path fill-rule="evenodd" clip-rule="evenodd" d="M107 16C109.209 16 111 14.2091 111 12C111 9.79089 109.209 8 107 8C106.021 7.99856 105.077 8.35719 104.346 9.00756C103.922 9.38248 103.583 9.84317 103.351 10.3591C103.119 10.875 102.999 11.4343 103 12C103 14.2091 104.791 16 107 16Z" fill="#2CB9C1"/>
<path d="M141 18.8906C140.067 18.8906 139.176 18.7089 138.329 18.3456C137.481 17.9822 136.747 17.491 136.128 16.8719C135.509 16.2528 135.018 15.5194 134.654 14.6715C134.291 13.8236 134.109 12.9331 134.109 12C134.109 11.067 134.291 10.1764 134.654 9.32855C135.018 8.48065 135.509 7.74722 136.128 7.12812C136.747 6.50902 137.481 6.01781 138.329 5.65444C139.176 5.29106 140.067 5.10938 141 5.10938C141.933 5.10938 142.824 5.29106 143.671 5.65444C144.519 6.01781 145.253 6.50902 145.872 7.12812C146.491 7.74722 146.982 8.48065 147.346 9.32855C147.709 10.1764 147.891 11.0669 147.891 12C147.891 12.933 147.709 13.8236 147.346 14.6715C146.982 15.5194 146.491 16.2528 145.872 16.8719C145.253 17.491 144.519 17.9822 143.671 18.3456C142.824 18.7089 141.933 18.8906 141 18.8906ZM141 17.7656C141.781 17.7656 142.526 17.6136 143.235 17.3096C143.945 17.0055 144.558 16.5945 145.077 16.0765C145.595 15.5584 146.005 14.9448 146.31 14.2353C146.614 13.5259 146.766 12.7807 146.766 12C146.766 11.2193 146.614 10.4741 146.31 9.7647C146.005 9.05524 145.595 8.44155 145.077 7.92349C144.558 7.4055 143.945 6.99452 143.235 6.69042C142.526 6.38639 141.781 6.23438 141 6.23438C140.219 6.23438 139.474 6.38639 138.765 6.69042C138.055 6.99452 137.442 7.4055 136.923 7.92349C136.406 8.44155 135.995 9.05524 135.69 9.7647C135.386 10.4741 135.234 11.2193 135.234 12C135.234 12.7807 135.386 13.5259 135.69 14.2353C135.995 14.9448 136.406 15.5584 136.923 16.0765C137.442 16.5945 138.055 17.0055 138.765 17.3096C139.474 17.6136 140.219 17.7656 141 17.7656Z" fill="#636B78"/>
<path d="M175 18.8906C174.067 18.8906 173.176 18.7089 172.329 18.3456C171.481 17.9822 170.747 17.491 170.128 16.8719C169.509 16.2528 169.018 15.5194 168.654 14.6715C168.291 13.8236 168.109 12.9331 168.109 12C168.109 11.067 168.291 10.1764 168.654 9.32855C169.018 8.48065 169.509 7.74722 170.128 7.12812C170.747 6.50902 171.481 6.01781 172.329 5.65444C173.176 5.29106 174.067 5.10938 175 5.10938C175.933 5.10938 176.824 5.29106 177.671 5.65444C178.519 6.01781 179.253 6.50902 179.872 7.12812C180.491 7.74722 180.982 8.48065 181.346 9.32855C181.709 10.1764 181.891 11.0669 181.891 12C181.891 12.933 181.709 13.8236 181.346 14.6715C180.982 15.5194 180.491 16.2528 179.872 16.8719C179.253 17.491 178.519 17.9822 177.671 18.3456C176.824 18.7089 175.933 18.8906 175 18.8906ZM175 17.7656C175.781 17.7656 176.526 17.6136 177.235 17.3096C177.945 17.0055 178.558 16.5945 179.077 16.0765C179.595 15.5584 180.005 14.9448 180.31 14.2353C180.614 13.5259 180.766 12.7807 180.766 12C180.766 11.2193 180.614 10.4741 180.31 9.7647C180.005 9.05524 179.595 8.44155 179.077 7.92349C178.558 7.4055 177.945 6.99452 177.235 6.69042C176.526 6.38639 175.781 6.23438 175 6.23438C174.219 6.23438 173.474 6.38639 172.765 6.69042C172.055 6.99452 171.442 7.4055 170.923 7.92349C170.406 8.44155 169.995 9.05524 169.69 9.7647C169.386 10.4741 169.234 11.2193 169.234 12C169.234 12.7807 169.386 13.5259 169.69 14.2353C169.995 14.9448 170.406 15.5584 170.923 16.0765C171.442 16.5945 172.055 17.0055 172.765 17.3096C173.474 17.6136 174.219 17.7656 175 17.7656Z" fill="#636B78"/>
<path d="M212.293 6.70711C211.902 6.31658 211.902 5.68342 212.293 5.29289C212.683 4.90237 213.317 4.90237 213.707 5.29289L219.707 11.2929C220.086 11.6715 220.099 12.2811 219.737 12.6757L214.237 18.6757C213.864 19.0828 213.231 19.1103 212.824 18.7372C212.417 18.364 212.39 17.7314 212.763 17.3243L217.616 12.0301L212.293 6.70711Z" fill="white"/>
<path opacity="0.3" d="M205.293 6.70711C204.902 6.31658 204.902 5.68342 205.293 5.29289C205.683 4.90237 206.317 4.90237 206.707 5.29289L212.707 11.2929C213.086 11.6715 213.099 12.2811 212.737 12.6757L207.237 18.6757C206.864 19.0828 206.231 19.1103 205.824 18.7372C205.417 18.364 205.39 17.7314 205.763 17.3243L210.616 12.0301L205.293 6.70711Z" fill="white"/>
</svg>
