<svg width="446" height="68" viewBox="0 0 446 68" fill="none" xmlns="http://www.w3.org/2000/svg">
<rect x="0.4" y="0.4" width="445.2" height="67.2" fill="white"/>
<path d="M43.2149 39.2756L45.8133 41.8727C45.9344 41.9981 46.0015 42.1661 46 42.3406C45.9985 42.515 45.9285 42.6818 45.8052 42.8052C45.6818 42.9285 45.515 42.9985 45.3406 43C45.1661 43.0015 44.9981 42.9344 44.8727 42.8133L42.2743 40.2149C40.5764 41.6697 38.381 42.4102 36.1488 42.2812C33.9166 42.1522 31.8211 41.1636 30.3021 39.5229C28.7831 37.8822 27.9586 35.7169 28.0016 33.4814C28.0446 31.2459 28.9519 29.1139 30.5329 27.5329C32.1139 25.9519 34.2459 25.0446 36.4814 25.0016C38.7169 24.9586 40.8822 25.7831 42.5229 27.3021C44.1636 28.8211 45.1522 30.9166 45.2812 33.1488C45.4102 35.381 44.6697 37.5764 43.2149 39.2743V39.2756ZM36.6479 40.9653C38.5886 40.9653 40.4498 40.1944 41.8221 38.8221C43.1944 37.4498 43.9653 35.5886 43.9653 33.6479C43.9653 31.7072 43.1944 29.846 41.8221 28.4738C40.4498 27.1015 38.5886 26.3305 36.6479 26.3305C34.7072 26.3305 32.846 27.1015 31.4738 28.4738C30.1015 29.846 29.3305 31.7072 29.3305 33.6479C29.3305 35.5886 30.1015 37.4498 31.4738 38.8221C32.846 40.1944 34.7072 40.9653 36.6479 40.9653Z" fill="#F06C5C"/>
<path d="M67.8466 31.1818C67.7741 30.4531 67.4524 29.8736 66.8814 29.4432C66.3104 29.0128 65.5923 28.7976 64.7273 28.7976C64.1179 28.7976 63.581 28.902 63.1165 29.1108C62.6563 29.3196 62.294 29.6094 62.0298 29.9801C61.7699 30.3466 61.6399 30.7642 61.6399 31.233C61.6399 31.5781 61.7145 31.8807 61.8636 32.1406C62.0128 32.4006 62.2131 32.6243 62.4645 32.8118C62.7202 32.995 63.0014 33.1527 63.3082 33.2848C63.6193 33.4169 63.9325 33.5277 64.2479 33.6172L65.6286 34.0135C66.0462 34.1286 66.4638 34.2756 66.8814 34.4545C67.299 34.6335 67.6804 34.8594 68.0256 35.1321C68.375 35.4006 68.6541 35.7308 68.8629 36.1229C69.076 36.5107 69.1825 36.9773 69.1825 37.5227C69.1825 38.2216 69.0014 38.8501 68.6392 39.4084C68.277 39.9666 67.7571 40.4098 67.0795 40.7379C66.402 41.0618 65.5902 41.2237 64.6442 41.2237C63.7536 41.2237 62.9801 41.0767 62.3239 40.7827C61.6676 40.4844 61.152 40.0732 60.777 39.549C60.402 39.0249 60.1911 38.4176 60.1442 37.7273H61.3714C61.4141 38.2429 61.5845 38.6797 61.8828 39.0376C62.1811 39.3956 62.5689 39.6683 63.0462 39.8558C63.5234 40.0391 64.0561 40.1307 64.6442 40.1307C65.2962 40.1307 65.8757 40.022 66.3828 39.8047C66.8942 39.5831 67.2947 39.2763 67.5845 38.8842C67.8786 38.4879 68.0256 38.0277 68.0256 37.5036C68.0256 37.0604 67.9105 36.6896 67.6804 36.3913C67.4503 36.0888 67.1286 35.8352 66.7152 35.6307C66.3061 35.4261 65.831 35.245 65.2898 35.0874L63.7237 34.6271C62.6967 34.3203 61.8999 33.8963 61.3331 33.3551C60.7663 32.8139 60.483 32.1236 60.483 31.2841C60.483 30.581 60.6705 29.9631 61.0455 29.4304C61.4247 28.8935 61.9361 28.4759 62.5795 28.1776C63.2273 27.875 63.9538 27.7237 64.7592 27.7237C65.5732 27.7237 66.2933 27.8729 66.9197 28.1712C67.5462 28.4695 68.0426 28.8807 68.4091 29.4048C68.7798 29.9247 68.978 30.517 69.0036 31.1818H67.8466ZM75.7919 41.2045C74.8757 41.2045 74.0831 40.9915 73.4141 40.5653C72.745 40.1349 72.2273 39.5405 71.8608 38.782C71.4986 38.0192 71.3175 37.1413 71.3175 36.1484C71.3175 35.1598 71.4986 34.282 71.8608 33.5149C72.2273 32.7436 72.7322 32.1406 73.3757 31.706C74.0234 31.267 74.7713 31.0476 75.6193 31.0476C76.152 31.0476 76.6655 31.1456 77.1598 31.3416C77.6541 31.5334 78.0973 31.8295 78.4893 32.2301C78.8857 32.6264 79.1989 33.1271 79.429 33.7322C79.6591 34.3331 79.7741 35.0447 79.7741 35.8672V36.4297H72.1037V35.4261H78.6108C78.6108 34.7955 78.483 34.2287 78.2273 33.7259C77.9759 33.2187 77.6243 32.8182 77.1726 32.5241C76.7251 32.2301 76.2074 32.0831 75.6193 32.0831C74.9972 32.0831 74.4496 32.2493 73.9766 32.5817C73.5036 32.9141 73.1328 33.353 72.8643 33.8984C72.6001 34.4439 72.4659 35.0405 72.4616 35.6882V36.2891C72.4616 37.0689 72.5959 37.7507 72.8643 38.3345C73.1371 38.9141 73.5227 39.3636 74.0213 39.6832C74.5199 40.0028 75.1101 40.1626 75.7919 40.1626C76.2564 40.1626 76.6634 40.0902 77.0128 39.9453C77.3665 39.8004 77.6626 39.6065 77.9013 39.3636C78.1442 39.1165 78.3274 38.8459 78.451 38.5518L79.5312 38.9034C79.3821 39.3168 79.1371 39.6982 78.7962 40.0476C78.4595 40.397 78.0376 40.6783 77.5305 40.8913C77.0277 41.1001 76.4482 41.2045 75.7919 41.2045ZM85.0236 41.2237C84.4313 41.2237 83.8901 41.1087 83.4 40.8786C82.91 40.6442 82.5201 40.3075 82.2303 39.8686C81.9405 39.4254 81.7956 38.8885 81.7956 38.2578C81.7956 37.772 81.8873 37.3629 82.0705 37.0305C82.2537 36.6982 82.5137 36.4254 82.8503 36.2124C83.187 35.9993 83.5854 35.831 84.0456 35.7074C84.5059 35.5838 85.013 35.4879 85.5669 35.4197C86.1167 35.3516 86.5811 35.2919 86.9604 35.2408C87.3439 35.1896 87.6358 35.1087 87.8361 34.9979C88.0364 34.8871 88.1365 34.7081 88.1365 34.4609V34.2308C88.1365 33.5618 87.9363 33.0355 87.5357 32.652C87.1394 32.2642 86.5684 32.0703 85.8226 32.0703C85.1152 32.0703 84.5378 32.2259 84.0904 32.5369C83.6472 32.848 83.3361 33.2145 83.1571 33.6364L82.0769 33.2464C82.2985 32.7095 82.6053 32.2812 82.9973 31.9616C83.3894 31.6378 83.8283 31.4055 84.3141 31.2649C84.7999 31.12 85.2921 31.0476 85.7907 31.0476C86.1657 31.0476 86.5556 31.0966 86.9604 31.1946C87.3695 31.2926 87.7488 31.4631 88.0982 31.706C88.4476 31.9446 88.731 32.2791 88.9483 32.7095C89.1657 33.1357 89.2743 33.6768 89.2743 34.3331V41H88.1365V39.4467H88.0662C87.9299 39.7365 87.7275 40.0178 87.459 40.2905C87.1905 40.5632 86.8539 40.7869 86.449 40.9616C86.0442 41.1364 85.5691 41.2237 85.0236 41.2237ZM85.177 40.1818C85.7821 40.1818 86.3063 40.0476 86.7495 39.7791C87.1926 39.5107 87.5336 39.1548 87.7722 38.7116C88.0151 38.2642 88.1365 37.772 88.1365 37.2351V35.8161C88.0513 35.897 87.9086 35.9695 87.7083 36.0334C87.5123 36.0973 87.2843 36.1548 87.0243 36.206C86.7686 36.2528 86.513 36.2933 86.2573 36.3274C86.0016 36.3615 85.7715 36.3913 85.5669 36.4169C85.013 36.4851 84.54 36.5916 84.1479 36.7365C83.7559 36.8814 83.4554 37.0817 83.2466 37.3374C83.0378 37.5888 82.9334 37.9126 82.9334 38.3089C82.9334 38.9055 83.1465 39.3679 83.5726 39.696C83.9988 40.0199 84.5336 40.1818 85.177 40.1818ZM92.301 41V31.1818H93.4068V32.6903H93.4899C93.6859 32.196 94.0268 31.7976 94.5126 31.495C95.0027 31.1882 95.5566 31.0348 96.1745 31.0348C96.2683 31.0348 96.3727 31.0369 96.4877 31.0412C96.6028 31.0455 96.6987 31.0497 96.7754 31.054V32.2109C96.7243 32.2024 96.6348 32.1896 96.5069 32.1726C96.3791 32.1555 96.2406 32.147 96.0914 32.147C95.5801 32.147 95.1241 32.2557 94.7235 32.473C94.3272 32.6861 94.014 32.9822 93.7839 33.3615C93.5538 33.7408 93.4387 34.1733 93.4387 34.6591V41H92.301ZM102.253 41.2045C101.376 41.2045 100.611 40.9851 99.9586 40.5462C99.3109 40.1072 98.8081 39.5064 98.4501 38.7436C98.0922 37.9808 97.9132 37.1115 97.9132 36.1357C97.9132 35.1513 98.0943 34.2756 98.4565 33.5085C98.823 32.7415 99.3301 32.1406 99.9778 31.706C100.626 31.267 101.378 31.0476 102.234 31.0476C102.89 31.0476 103.485 31.1754 104.018 31.4311C104.55 31.6825 104.989 32.0384 105.334 32.4986C105.684 32.9545 105.903 33.4872 105.993 34.0966H104.842C104.723 33.5426 104.435 33.0696 103.979 32.6776C103.528 32.2812 102.952 32.0831 102.253 32.0831C101.627 32.0831 101.073 32.2536 100.591 32.5945C100.11 32.9311 99.7328 33.402 99.46 34.0071C99.1916 34.608 99.0574 35.3047 99.0574 36.0973C99.0574 36.8942 99.1895 37.5994 99.4537 38.2131C99.7179 38.8224 100.089 39.2997 100.566 39.6449C101.047 39.9901 101.61 40.1626 102.253 40.1626C102.688 40.1626 103.084 40.0817 103.442 39.9197C103.805 39.7536 104.107 39.5192 104.35 39.2166C104.597 38.9141 104.763 38.554 104.849 38.1364H105.999C105.914 38.7287 105.703 39.2571 105.366 39.7216C105.034 40.1818 104.601 40.544 104.069 40.8082C103.54 41.0724 102.935 41.2045 102.253 41.2045ZM109.575 34.8636V41H108.438V27.9091H109.575V32.7223H109.678C109.908 32.2152 110.264 31.8104 110.745 31.5078C111.231 31.2053 111.845 31.054 112.586 31.054C113.251 31.054 113.835 31.1903 114.338 31.4631C114.84 31.7358 115.232 32.1385 115.514 32.6712C115.795 33.2038 115.936 33.8601 115.936 34.6399V41H114.791V34.7102C114.791 33.9006 114.566 33.2635 114.114 32.799C113.666 32.3303 113.061 32.0959 112.298 32.0959C111.774 32.0959 111.308 32.2067 110.899 32.4283C110.49 32.6499 110.166 32.9695 109.927 33.3871C109.693 33.8004 109.575 34.2926 109.575 34.8636ZM124.231 41V27.9091H128.648C129.5 27.9091 130.21 28.0582 130.776 28.3565C131.347 28.6548 131.776 29.0618 132.061 29.5774C132.347 30.093 132.489 30.679 132.489 31.3352C132.489 31.8807 132.398 32.3473 132.214 32.7351C132.031 33.1229 131.782 33.4361 131.467 33.6747C131.151 33.9134 130.8 34.0859 130.412 34.1925V34.2947C130.834 34.3246 131.243 34.4737 131.639 34.7422C132.036 35.0064 132.362 35.3771 132.617 35.8544C132.873 36.3317 133.001 36.9027 133.001 37.5675C133.001 38.228 132.854 38.8182 132.56 39.3381C132.266 39.8537 131.814 40.2607 131.205 40.5589C130.599 40.853 129.828 41 128.891 41H124.231ZM125.426 39.9261H128.891C129.901 39.9261 130.646 39.7024 131.128 39.255C131.614 38.8075 131.857 38.245 131.857 37.5675C131.857 37.0689 131.735 36.6172 131.492 36.2124C131.254 35.8033 130.915 35.4794 130.476 35.2408C130.041 35.0021 129.53 34.8828 128.942 34.8828H125.426V39.9261ZM125.426 33.8217H128.756C129.272 33.8217 129.724 33.7152 130.112 33.5021C130.499 33.2891 130.802 32.995 131.019 32.62C131.237 32.245 131.345 31.8168 131.345 31.3352C131.345 30.6406 131.119 30.076 130.668 29.6413C130.216 29.2024 129.543 28.983 128.648 28.983H125.426V33.8217ZM138.391 41.2237C137.798 41.2237 137.257 41.1087 136.767 40.8786C136.277 40.6442 135.887 40.3075 135.597 39.8686C135.308 39.4254 135.163 38.8885 135.163 38.2578C135.163 37.772 135.254 37.3629 135.438 37.0305C135.621 36.6982 135.881 36.4254 136.218 36.2124C136.554 35.9993 136.953 35.831 137.413 35.7074C137.873 35.5838 138.38 35.4879 138.934 35.4197C139.484 35.3516 139.948 35.2919 140.328 35.2408C140.711 35.1896 141.003 35.1087 141.203 34.9979C141.404 34.8871 141.504 34.7081 141.504 34.4609V34.2308C141.504 33.5618 141.303 33.0355 140.903 32.652C140.507 32.2642 139.936 32.0703 139.19 32.0703C138.482 32.0703 137.905 32.2259 137.458 32.5369C137.014 32.848 136.703 33.2145 136.524 33.6364L135.444 33.2464C135.666 32.7095 135.972 32.2812 136.365 31.9616C136.757 31.6378 137.195 31.4055 137.681 31.2649C138.167 31.12 138.659 31.0476 139.158 31.0476C139.533 31.0476 139.923 31.0966 140.328 31.1946C140.737 31.2926 141.116 31.4631 141.465 31.706C141.815 31.9446 142.098 32.2791 142.316 32.7095C142.533 33.1357 142.642 33.6768 142.642 34.3331V41H141.504V39.4467H141.433C141.297 39.7365 141.095 40.0178 140.826 40.2905C140.558 40.5632 140.221 40.7869 139.816 40.9616C139.411 41.1364 138.936 41.2237 138.391 41.2237ZM138.544 40.1818C139.149 40.1818 139.673 40.0476 140.117 39.7791C140.56 39.5107 140.901 39.1548 141.139 38.7116C141.382 38.2642 141.504 37.772 141.504 37.2351V35.8161C141.419 35.897 141.276 35.9695 141.075 36.0334C140.879 36.0973 140.651 36.1548 140.392 36.206C140.136 36.2528 139.88 36.2933 139.624 36.3274C139.369 36.3615 139.139 36.3913 138.934 36.4169C138.38 36.4851 137.907 36.5916 137.515 36.7365C137.123 36.8814 136.823 37.0817 136.614 37.3374C136.405 37.5888 136.301 37.9126 136.301 38.3089C136.301 38.9055 136.514 39.3679 136.94 39.696C137.366 40.0199 137.901 40.1818 138.544 40.1818ZM146.806 34.8636V41H145.668V31.1818H146.774V32.7223H146.876C147.106 32.2195 147.464 31.8168 147.95 31.5142C148.44 31.2074 149.045 31.054 149.765 31.054C150.426 31.054 151.006 31.1925 151.504 31.4695C152.007 31.7422 152.397 32.1449 152.674 32.6776C152.955 33.2102 153.096 33.8643 153.096 34.6399V41H151.958V34.7102C151.958 33.9048 151.732 33.2678 151.28 32.799C150.833 32.3303 150.232 32.0959 149.478 32.0959C148.962 32.0959 148.504 32.2067 148.104 32.4283C147.703 32.6499 147.385 32.9695 147.151 33.3871C146.921 33.8004 146.806 34.2926 146.806 34.8636ZM159.627 41.2045C158.821 41.2045 158.116 40.9915 157.511 40.5653C156.906 40.1392 156.433 39.5447 156.092 38.782C155.755 38.0192 155.587 37.1307 155.587 36.1165C155.587 35.1065 155.755 34.2223 156.092 33.4638C156.433 32.701 156.908 32.1087 157.517 31.6868C158.127 31.2607 158.836 31.0476 159.646 31.0476C160.243 31.0476 160.739 31.1541 161.135 31.3672C161.532 31.576 161.849 31.8359 162.088 32.147C162.326 32.4581 162.512 32.7607 162.644 33.0547H162.746V27.9091H163.89V41H162.778V39.1783H162.644C162.512 39.4766 162.324 39.7834 162.081 40.0987C161.838 40.4098 161.517 40.6719 161.116 40.8849C160.72 41.098 160.223 41.2045 159.627 41.2045ZM159.761 40.1626C160.396 40.1626 160.937 39.9901 161.385 39.6449C161.832 39.2955 162.173 38.8161 162.407 38.2067C162.646 37.593 162.765 36.8899 162.765 36.0973C162.765 35.3132 162.648 34.6207 162.414 34.0199C162.179 33.4148 161.838 32.9418 161.391 32.6009C160.944 32.2557 160.4 32.0831 159.761 32.0831C159.105 32.0831 158.551 32.2621 158.099 32.62C157.652 32.9737 157.311 33.4531 157.076 34.0582C156.846 34.6634 156.731 35.343 156.731 36.0973C156.731 36.8601 156.848 37.5483 157.083 38.1619C157.317 38.7756 157.658 39.2635 158.105 39.6257C158.557 39.9837 159.109 40.1626 159.761 40.1626ZM173.728 33.3359L172.686 33.63C172.583 33.3359 172.439 33.0696 172.251 32.831C172.064 32.5923 171.819 32.4027 171.516 32.2621C171.218 32.1214 170.847 32.0511 170.404 32.0511C169.739 32.0511 169.194 32.2088 168.767 32.5241C168.341 32.8395 168.128 33.2464 168.128 33.745C168.128 34.1669 168.273 34.5099 168.563 34.7741C168.857 35.0341 169.309 35.2408 169.918 35.3942L171.401 35.7585C172.223 35.9588 172.839 36.2763 173.248 36.7109C173.662 37.1456 173.868 37.6911 173.868 38.3473C173.868 38.9013 173.715 39.3935 173.408 39.8239C173.101 40.2543 172.673 40.593 172.123 40.8402C171.578 41.0831 170.945 41.2045 170.225 41.2045C169.266 41.2045 168.475 40.9893 167.853 40.5589C167.231 40.1243 166.833 39.4979 166.658 38.6797L167.751 38.4112C167.892 38.995 168.167 39.4361 168.576 39.7344C168.989 40.0327 169.532 40.1818 170.206 40.1818C170.96 40.1818 171.563 40.0135 172.015 39.6768C172.466 39.3359 172.692 38.9098 172.692 38.3984C172.692 38.0021 172.56 37.6697 172.296 37.4013C172.032 37.1286 171.631 36.9283 171.094 36.8004L169.49 36.4169C168.637 36.2124 168.007 35.8885 167.598 35.4453C167.189 35.0021 166.984 34.4524 166.984 33.7962C166.984 33.255 167.131 32.7798 167.425 32.3707C167.719 31.9574 168.124 31.6335 168.64 31.3991C169.155 31.1648 169.743 31.0476 170.404 31.0476C171.303 31.0476 172.021 31.2521 172.558 31.6612C173.099 32.0661 173.489 32.6243 173.728 33.3359Z" fill="#0A2942"/>
<path d="M407 38.75C407 38.5511 407.079 38.3603 407.22 38.2197C407.36 38.079 407.551 38 407.75 38H412.25C412.449 38 412.64 38.079 412.78 38.2197C412.921 38.3603 413 38.5511 413 38.75C413 38.9489 412.921 39.1397 412.78 39.2803C412.64 39.421 412.449 39.5 412.25 39.5H407.75C407.551 39.5 407.36 39.421 407.22 39.2803C407.079 39.1397 407 38.9489 407 38.75ZM404 34.25C404 34.0511 404.079 33.8603 404.22 33.7197C404.36 33.579 404.551 33.5 404.75 33.5H415.25C415.449 33.5 415.64 33.579 415.78 33.7197C415.921 33.8603 416 34.0511 416 34.25C416 34.4489 415.921 34.6397 415.78 34.7803C415.64 34.921 415.449 35 415.25 35H404.75C404.551 35 404.36 34.921 404.22 34.7803C404.079 34.6397 404 34.4489 404 34.25ZM401 29.75C401 29.5511 401.079 29.3603 401.22 29.2197C401.36 29.079 401.551 29 401.75 29H418.25C418.449 29 418.64 29.079 418.78 29.2197C418.921 29.3603 419 29.5511 419 29.75C419 29.9489 418.921 30.1397 418.78 30.2803C418.64 30.421 418.449 30.5 418.25 30.5H401.75C401.551 30.5 401.36 30.421 401.22 30.2803C401.079 30.1397 401 29.9489 401 29.75Z" fill="#F06C5C"/>
<rect x="0.4" y="0.4" width="445.2" height="67.2" stroke="#D1D4D6" stroke-width="0.8"/>
</svg>
