<svg width="28" height="28" viewBox="0 0 28 28" fill="none" xmlns="http://www.w3.org/2000/svg">
<path d="M22.8074 12.8297C22.2766 11.6349 21.5049 10.5625 20.5406 9.67968L19.7449 8.9496C19.7179 8.92549 19.6854 8.90838 19.6502 8.89977C19.615 8.89117 19.5783 8.89132 19.5432 8.90023C19.5081 8.90914 19.4757 8.92653 19.4489 8.95087C19.4221 8.97521 19.4017 9.00576 19.3895 9.03983L19.034 10.0598C18.8125 10.6996 18.4051 11.3531 17.8281 11.9957C17.7898 12.0367 17.7461 12.0476 17.716 12.0504C17.6859 12.0531 17.6395 12.0476 17.5984 12.0094C17.5602 11.9766 17.541 11.9273 17.5437 11.8781C17.6449 10.232 17.1527 8.37538 16.0754 6.35468C15.184 4.67577 13.9453 3.36601 12.3977 2.45273L11.2684 1.78828C11.1207 1.70078 10.932 1.81562 10.9402 1.98789L11.0004 3.30039C11.0414 4.19726 10.9375 4.99023 10.6914 5.64921C10.3906 6.45585 9.95859 7.20507 9.40625 7.87773C9.02186 8.3452 8.58619 8.76803 8.10742 9.13827C6.95435 10.0247 6.01676 11.1604 5.36484 12.4605C4.71454 13.772 4.37579 15.2158 4.375 16.6797C4.375 17.9703 4.6293 19.2199 5.13242 20.3984C5.61823 21.5331 6.3193 22.5629 7.19688 23.4308C8.08281 24.3058 9.11094 24.9949 10.2566 25.4734C11.4434 25.9711 12.7012 26.2226 14 26.2226C15.2988 26.2226 16.5566 25.9711 17.7434 25.4761C18.8862 25.0004 19.9255 24.3067 20.8031 23.4336C21.6891 22.5586 22.3836 21.5359 22.8676 20.4011C23.3699 19.2259 23.6277 17.9606 23.625 16.6824C23.625 15.348 23.3516 14.0519 22.8074 12.8297Z" fill="url(#paint0_linear_197_1034)"/>
<path d="M18.7031 15.6465C18.3572 15.7999 17.9856 15.9036 17.595 15.9505C17.998 15.709 18.2996 15.3289 18.4434 14.8812C18.0647 15.1064 17.6502 15.2649 17.218 15.3499C16.9273 15.0392 16.5424 14.8332 16.1228 14.764C15.7033 14.6948 15.2727 14.7662 14.8978 14.9671C14.523 15.1681 14.2249 15.4873 14.0498 15.8753C13.8747 16.2633 13.8324 16.6982 13.9296 17.1127C13.1622 17.0741 12.4116 16.8744 11.7263 16.5266C11.041 16.1787 10.4364 15.6905 9.95182 15.0935C9.78612 15.3797 9.69084 15.7116 9.69084 16.065C9.69065 16.3831 9.7689 16.6964 9.91863 16.977C10.0684 17.2576 10.285 17.4968 10.5492 17.6735C10.2428 17.6637 9.94307 17.5808 9.6751 17.4317V17.4566C9.67507 17.9028 9.82922 18.3352 10.1114 18.6806C10.3936 19.0259 10.7864 19.2629 11.2232 19.3513C10.9389 19.4283 10.6409 19.4397 10.3516 19.3845C10.4748 19.7684 10.7149 20.1041 11.0382 20.3446C11.3615 20.5852 11.7518 20.7185 12.1545 20.7259C11.4709 21.2632 10.6266 21.5546 9.75754 21.5534C9.60359 21.5534 9.44977 21.5444 9.29688 21.5264C10.179 22.0943 11.2059 22.3957 12.2547 22.3945C15.8049 22.3945 17.7458 19.4504 17.7458 16.897C17.7458 16.8141 17.7437 16.7303 17.74 16.6473C18.1175 16.374 18.4433 16.0355 18.7023 15.6477L18.7031 15.6465Z" fill="white"/>
<defs>
<linearGradient id="paint0_linear_197_1034" x1="14" y1="1.75823" x2="14" y2="26.2226" gradientUnits="userSpaceOnUse">
<stop stop-color="#2AA4F4"/>
<stop offset="1" stop-color="#682AF4"/>
</linearGradient>
</defs>
</svg>
