<svg width="48" height="39" viewBox="0 0 48 39" fill="none" xmlns="http://www.w3.org/2000/svg">
<path d="M43.9056 34.4181H47.9995V36.5127H41.4136V23.341H43.9056V34.4181Z" fill="#636B78"/>
<path d="M30.5323 23.341V31.4122C30.5323 32.2965 30.7586 32.9753 31.2113 33.4487C31.6639 33.9095 32.3 34.1399 33.1196 34.1399C33.9515 34.1399 34.5937 33.9095 35.0464 33.4487C35.499 32.9753 35.7253 32.2965 35.7253 31.4122V23.341H38.3126V31.3935C38.3126 32.502 38.0741 33.4424 37.597 34.2147C37.1321 34.9745 36.5021 35.5474 35.707 35.9335C34.924 36.3197 34.0494 36.5127 33.0829 36.5127C32.1288 36.5127 31.2602 36.3197 30.4773 35.9335C29.7066 35.5474 29.0949 34.9745 28.6423 34.2147C28.1897 33.4424 27.9634 32.502 27.9634 31.3935V23.341H30.5323Z" fill="#636B78"/>
<path fill-rule="evenodd" clip-rule="evenodd" d="M37.2642 21.0163C31.7013 21.0163 27.1917 16.5067 27.1917 10.9438C27.1917 5.38085 31.7013 0.871222 37.2642 0.871222C42.8271 0.871222 47.3367 5.38085 47.3367 10.9438C47.3367 16.5067 42.8271 21.0163 37.2642 21.0163ZM37.2641 15.9801C34.4826 15.9801 32.2278 13.7253 32.2278 10.9439C32.2278 8.16242 34.4826 5.90761 37.2641 5.90761C40.0455 5.90761 42.3004 8.16242 42.3004 10.9439C42.3004 13.7253 40.0455 15.9801 37.2641 15.9801Z" fill="url(#paint0_linear_1382_10144)"/>
<path d="M13.1579 38.0621C10.6987 38.0621 8.47532 37.6286 6.48776 36.7617C4.53389 35.8948 2.98427 34.6464 1.8389 33.0166C0.693529 31.3868 0.104 29.4623 0.0703125 27.2429H7.64998C7.75104 28.734 8.25635 29.9131 9.16591 30.78C10.1092 31.6469 11.3893 32.0804 13.0063 32.0804C14.657 32.0804 15.9539 31.6816 16.8972 30.884C17.8404 30.0518 18.312 28.9768 18.312 27.6591C18.312 26.5841 17.992 25.6998 17.3519 25.0063C16.7119 24.3127 15.9034 23.7753 14.9265 23.3938C13.9832 22.9777 12.6694 22.5269 10.985 22.0414C8.69429 21.3479 6.82464 20.6717 5.37608 20.0128C3.96121 19.3193 2.73162 18.2963 1.68731 16.9439C0.676686 15.5568 0.171375 13.719 0.171375 11.4303C0.171375 9.28034 0.693529 7.4078 1.73784 5.81266C2.78215 4.21753 4.24755 3.00384 6.13404 2.1716C8.02054 1.30468 10.1765 0.871216 12.602 0.871216C16.2403 0.871216 19.1879 1.79015 21.445 3.62802C23.7357 5.43122 24.999 7.96263 25.2348 11.2222H17.453C17.3856 9.97388 16.8635 8.95092 15.8865 8.15335C14.9433 7.32111 13.68 6.90498 12.0967 6.90498C10.7155 6.90498 9.60385 7.26909 8.76166 7.9973C7.95316 8.72552 7.54892 9.78316 7.54892 11.1702C7.54892 12.1412 7.8521 12.9561 8.45847 13.6149C9.09853 14.2391 9.87335 14.7593 10.7829 15.1754C11.7262 15.5568 13.04 16.0076 14.7243 16.5278C17.0151 17.2213 18.8847 17.9149 20.3333 18.6084C21.7818 19.3019 23.0283 20.3423 24.0726 21.7293C25.1169 23.1164 25.639 24.9369 25.639 27.1909C25.639 29.1328 25.1506 30.936 24.1736 32.6005C23.1967 34.265 21.765 35.6001 19.8785 36.6057C17.992 37.5766 15.7518 38.0621 13.1579 38.0621Z" fill="url(#paint1_linear_1382_10144)"/>
<defs>
<linearGradient id="paint0_linear_1382_10144" x1="24.1603" y1="0.871216" x2="24.1603" y2="38.0621" gradientUnits="userSpaceOnUse">
<stop stop-color="#63D8CF"/>
<stop offset="1" stop-color="#8CB5F7"/>
</linearGradient>
<linearGradient id="paint1_linear_1382_10144" x1="12.8547" y1="0.871216" x2="12.8547" y2="38.0621" gradientUnits="userSpaceOnUse">
<stop stop-color="#FFA49B"/>
<stop offset="1" stop-color="#A2F0E3"/>
</linearGradient>
</defs>
</svg>
