<svg width="54" height="54" viewBox="0 0 54 54" fill="none" xmlns="http://www.w3.org/2000/svg">
<g clip-path="url(#clip0_2861_5840)">
<path opacity="0.3" d="M27 49.5C39.4264 49.5 49.5 39.4264 49.5 27C49.5 14.5736 39.4264 4.5 27 4.5C14.5736 4.5 4.5 14.5736 4.5 27C4.5 39.4264 14.5736 49.5 27 49.5Z" fill="#0A2942"/>
<path d="M33.0239 16.7923C33.777 16.0391 33.777 14.818 33.0239 14.0649C32.2707 13.3117 31.0496 13.3117 30.2965 14.0649L18.725 25.6363C17.9949 26.3664 17.9694 27.542 18.6671 28.3032L29.2742 39.8746C29.9939 40.6598 31.2139 40.7128 31.9991 39.9931C32.7842 39.2733 32.8373 38.0534 32.1175 37.2682L22.7581 27.058L33.0239 16.7923Z" fill="#0A2942"/>
</g>
<defs>
<clipPath id="clip0_2861_5840">
<rect width="54" height="54" fill="white"/>
</clipPath>
</defs>
</svg>
