<svg width="54" height="54" viewBox="0 0 54 54" fill="none" xmlns="http://www.w3.org/2000/svg">
<path opacity="0.3" d="M27 49.5C14.5736 49.5 4.5 39.4264 4.5 27C4.5 14.5736 14.5736 4.5 27 4.5C39.4264 4.5 49.5 14.5736 49.5 27C49.5 39.4264 39.4264 49.5 27 49.5Z" fill="#0A2942"/>
<path d="M20.9761 16.7923C20.223 16.0391 20.223 14.818 20.9761 14.0649C21.7293 13.3117 22.9504 13.3117 23.7035 14.0649L35.275 25.6363C36.0051 26.3664 36.0306 27.542 35.3329 28.3032L24.7258 39.8746C24.0061 40.6598 22.7861 40.7128 22.0009 39.9931C21.2158 39.2733 21.1627 38.0534 21.8825 37.2682L31.2419 27.058L20.9761 16.7923Z" fill="#0A2942"/>
</svg>
